<svg id="visual" viewBox="0 0 900 675" width="900" height="675" xmlns="http://www.w3.org/2000/svg" xmlns:xlink="http://www.w3.org/1999/xlink" version="1.1"><rect x="0" y="0" width="900" height="675" fill="#ECE5C7"></rect><path d="M0 169L15 172.2C30 175.3 60 181.7 90 176.5C120 171.3 150 154.7 180 145.8C210 137 240 136 270 134.8C300 133.7 330 132.3 360 131.8C390 131.3 420 131.7 450 143.7C480 155.7 510 179.3 540 189.8C570 200.3 600 197.7 630 188.2C660 178.7 690 162.3 720 154.5C750 146.7 780 147.3 810 153.8C840 160.3 870 172.7 885 178.8L900 185L900 676L885 676C870 676 840 676 810 676C780 676 750 676 720 676C690 676 660 676 630 676C600 676 570 676 540 676C510 676 480 676 450 676C420 676 390 676 360 676C330 676 300 676 270 676C240 676 210 676 180 676C150 676 120 676 90 676C60 676 30 676 15 676L0 676Z" fill="#ece5c7"></path><path d="M0 268L15 261.8C30 255.7 60 243.3 90 246.5C120 249.7 150 268.3 180 277.8C210 287.3 240 287.7 270 286.8C300 286 330 284 360 282.3C390 280.7 420 279.3 450 280C480 280.7 510 283.3 540 286C570 288.7 600 291.3 630 292.5C660 293.7 690 293.3 720 288.3C750 283.3 780 273.7 810 264C840 254.3 870 244.7 885 239.8L900 235L900 676L885 676C870 676 840 676 810 676C780 676 750 676 720 676C690 676 660 676 630 676C600 676 570 676 540 676C510 676 480 676 450 676C420 676 390 676 360 676C330 676 300 676 270 676C240 676 210 676 180 676C150 676 120 676 90 676C60 676 30 676 15 676L0 676Z" fill="#d2ccae"></path><path d="M0 407L15 402.3C30 397.7 60 388.3 90 384.5C120 380.7 150 382.3 180 386.2C210 390 240 396 270 395.8C300 395.7 330 389.3 360 381.2C390 373 420 363 450 353.7C480 344.3 510 335.7 540 343C570 350.3 600 373.7 630 376.8C660 380 690 363 720 365.2C750 367.3 780 388.7 810 392.8C840 397 870 384 885 377.5L900 371L900 676L885 676C870 676 840 676 810 676C780 676 750 676 720 676C690 676 660 676 630 676C600 676 570 676 540 676C510 676 480 676 450 676C420 676 390 676 360 676C330 676 300 676 270 676C240 676 210 676 180 676C150 676 120 676 90 676C60 676 30 676 15 676L0 676Z" fill="#b9b396"></path><path d="M0 498L15 497.3C30 496.7 60 495.3 90 484.5C120 473.7 150 453.3 180 449.2C210 445 240 457 270 468.2C300 479.3 330 489.7 360 487.8C390 486 420 472 450 469.8C480 467.7 510 477.3 540 477.8C570 478.3 600 469.7 630 469.7C660 469.7 690 478.3 720 481.7C750 485 780 483 810 481.8C840 480.7 870 480.3 885 480.2L900 480L900 676L885 676C870 676 840 676 810 676C780 676 750 676 720 676C690 676 660 676 630 676C600 676 570 676 540 676C510 676 480 676 450 676C420 676 390 676 360 676C330 676 300 676 270 676C240 676 210 676 180 676C150 676 120 676 90 676C60 676 30 676 15 676L0 676Z" fill="#a19b7f"></path><path d="M0 550L15 548.5C30 547 60 544 90 551C120 558 150 575 180 581.5C210 588 240 584 270 580.5C300 577 330 574 360 576.5C390 579 420 587 450 585.3C480 583.7 510 572.3 540 566C570 559.7 600 558.3 630 557.5C660 556.7 690 556.3 720 560.3C750 564.3 780 572.7 810 572.7C840 572.7 870 564.3 885 560.2L900 556L900 676L885 676C870 676 840 676 810 676C780 676 750 676 720 676C690 676 660 676 630 676C600 676 570 676 540 676C510 676 480 676 450 676C420 676 390 676 360 676C330 676 300 676 270 676C240 676 210 676 180 676C150 676 120 676 90 676C60 676 30 676 15 676L0 676Z" fill="#898468"></path></svg>